<svg width="35" height="43" viewBox="0 0 35 43" fill="none" xmlns="http://www.w3.org/2000/svg">
<path d="M13.1521 13.7927V14.5868C13.1521 22.2352 13.1559 29.8822 13.1496 37.5306C13.1484 39.7106 12.2954 41.4282 10.2787 42.4133C9.73141 42.681 9.08978 42.8468 8.48212 42.8833C6.81767 42.9825 5.12555 43.1647 3.49884 42.6747C1.15251 41.9698 -0.128227 39.8576 0.0101629 37.7467C0.181263 35.1218 1.92497 33.3075 4.3556 33.0172C4.85254 32.9581 5.35452 32.928 5.85398 32.9217C7.00136 32.9079 8.14999 32.9179 9.38417 32.9179V32.1578C9.38417 23.1512 9.38921 14.1458 9.37285 5.1392C9.37285 4.60142 9.44582 4.36269 10.0661 4.26091C14.8418 3.47434 19.6074 2.63374 24.3768 1.81199C27.6252 1.25159 30.8736 0.694957 34.122 0.13707C34.3887 0.0918361 34.6566 0.0516281 34.9699 0.00262451C34.9812 0.214973 34.9988 0.39591 34.9988 0.576846C35.0001 11.6517 35.0026 22.7265 34.9988 33.8013C34.9988 36.4047 33.6791 38.4264 31.2749 38.9278C28.9751 39.4065 26.5747 39.6189 24.3529 38.4717C22.4834 37.5067 21.536 35.3116 21.9424 33.1466C22.3186 31.1463 24.1013 29.4525 26.1721 29.2728C27.5849 29.151 29.0116 29.1886 30.432 29.1572C30.6773 29.1522 30.9226 29.1572 31.1994 29.1572V10.6892C25.187 11.7233 19.2111 12.7511 13.1521 13.794V13.7927Z" fill="white"/>
</svg>
