<svg width="651" height="828" viewBox="0 0 651 828" fill="none" xmlns="http://www.w3.org/2000/svg">
<path d="M0 696.976C4.40713 684.962 7.2588 672.041 13.5238 661.086C34.8898 623.836 69.2394 604.217 110.049 595.509C150.879 586.802 190.371 591.62 227.68 611.131C230.013 612.363 232.454 613.378 236.408 615.236C236.408 610.915 236.408 607.609 236.408 604.303C236.408 434.494 236.343 264.685 236.646 94.8764C236.646 87.1627 238.806 78.7792 242.306 71.9082C247.577 61.5152 258.487 59.549 269.224 58.3606C368.535 47.4275 467.847 36.4944 567.159 25.4748C642.101 17.1562 717.022 8.68623 791.965 0.259521C813.05 -2.11724 827.914 10.6092 827.935 31.676C828 237.612 828.086 443.548 827.87 649.462C827.827 688.225 808.427 716.897 777.945 738.958C718.708 781.826 624.862 777.764 571.047 730.142C516.714 682.067 519.998 607.847 578.522 564.806C612.245 540.001 650.267 530.213 691.876 532.957C716.439 534.578 739.533 540.909 761.18 552.555C762.822 553.441 764.572 554.154 766.322 554.845C766.754 555.018 767.359 554.802 768.309 554.715V210.43C610.647 228.018 453.481 245.542 295.774 263.13V274.365C295.774 415.07 294.629 555.774 296.293 696.457C297.049 759.679 258.314 797.383 215.28 814.561C200.719 820.373 184.732 822.642 169.394 826.553C167.881 826.941 166.412 827.525 164.922 828.022H130.961C128.39 827.46 125.841 826.725 123.248 826.336C81.5103 819.962 45.6916 803.023 19.6593 768.495C9.0735 754.385 3.97506 738.072 0 721.24C0 713.159 0 705.078 0 696.976ZM296.25 203.43C357.863 196.537 418.569 189.666 479.297 182.946C573.467 172.51 667.637 162.117 761.807 151.876C767.38 151.271 768.893 149.088 768.849 143.751C768.612 118.968 768.763 94.1849 768.72 69.4018C768.72 67.3491 768.288 65.318 767.985 62.6388C610.495 80.1836 453.567 97.6637 296.25 115.187V203.43ZM678.827 591.577C654.178 591.966 629.917 598.254 609.415 615.625C585.522 635.871 585.694 665.948 609.804 685.762C645.083 714.758 703.628 717.61 742.191 692.2C776.043 669.902 777.685 636.066 745.604 611.585C726.506 597.022 704.125 591.879 678.827 591.577ZM149.108 768.624C173.758 768.214 198.062 761.991 218.542 744.576C242.457 724.244 242.284 694.404 218.11 674.44C182.896 645.335 122.579 642.634 85.0317 668.454C51.5461 691.487 50.5091 724.741 82.9793 749.135C101.947 763.374 124.134 768.3 149.086 768.624H149.108Z" fill="white"/>
</svg>
