<svg width="23" height="24" viewBox="0 0 23 24" fill="none" xmlns="http://www.w3.org/2000/svg">
<path d="M18.7014 23.9997C17.3956 24.0147 16.158 23.4232 15.3566 22.4011C14.5552 21.3791 14.2822 20.0442 14.619 18.7934L7.06476 14.5131C5.75941 15.6986 3.84599 15.9496 2.27458 15.1412C0.703166 14.3329 -0.191534 12.6375 0.0347219 10.8969C0.260978 9.15623 1.56 7.74108 3.28678 7.35408C5.01357 6.96709 6.80031 7.69069 7.75984 9.16559L14.6178 5.2788C14.529 4.94645 14.482 4.60452 14.4778 4.26075C14.4605 2.259 15.8629 0.520089 17.8364 0.0962153C19.8099 -0.327658 21.8125 0.679916 22.6325 2.50927C23.4525 4.33862 22.8646 6.48734 21.2246 7.65527C19.5846 8.82319 17.3429 8.68957 15.8559 7.33525L8.4332 11.5402C8.42585 11.8505 8.38211 12.1588 8.30287 12.459L15.8559 16.7382C17.2464 15.4731 19.3153 15.2779 20.9216 16.26C22.5279 17.2422 23.2805 19.1628 22.7643 20.9623C22.248 22.7619 20.5886 24.0025 18.7014 23.9997ZM18.7014 18.0182C17.7017 18.0182 16.8913 18.8216 16.8913 19.8127C16.8913 20.8037 17.7017 21.6071 18.7014 21.6071C19.7011 21.6071 20.5115 20.8037 20.5115 19.8127C20.5115 18.8216 19.7011 18.0182 18.7014 18.0182ZM4.22047 9.64411C3.22077 9.64411 2.41035 10.4475 2.41035 11.4386C2.41035 12.4296 3.22077 13.233 4.22047 13.233C5.22016 13.233 6.03058 12.4296 6.03058 11.4386C6.03058 10.4475 5.22016 9.64411 4.22047 9.64411ZM18.7014 2.4663C17.7017 2.4663 16.8913 3.2697 16.8913 4.26075C16.8913 5.2518 17.7017 6.0552 18.7014 6.0552C19.7011 6.0552 20.5115 5.2518 20.5115 4.26075C20.5115 3.2697 19.7011 2.4663 18.7014 2.4663Z" fill="#9747FF"/>
</svg>
