<svg width="47" height="31" viewBox="0 0 47 31" fill="none" xmlns="http://www.w3.org/2000/svg">
<path fill-rule="evenodd" clip-rule="evenodd" d="M46.9991 6.04797L47 6.04804H46.9991V6.04797ZM46.9991 6.04797C46.9391 6.04366 46.879 6.03803 46.8189 6.0324C46.6976 6.02104 46.5762 6.00967 46.4552 6.00905C44.0464 6.00682 41.6381 6.00697 39.2295 6.00711H39.2294H39.2293H39.2292H39.2292H39.2291H39.229H39.229H39.2289L37.4226 6.00719H36.8465V0.0422572C36.8768 0.0378873 36.9075 0.0322375 36.9384 0.0265415L36.9385 0.0265341C37.0061 0.0140804 37.0749 0.00140785 37.1437 0.00140785C40.3537 -0.000448938 43.5628 -0.000448938 46.7727 0.00140785C46.824 0.00140785 46.8754 0.00870595 46.9267 0.016004C46.9508 0.0194382 46.975 0.0228724 46.9991 0.0255461V6.04797ZM46.8223 14.3693C46.8815 14.3756 46.9408 14.382 47 14.3868V8.36528C46.9763 8.36203 46.9524 8.35783 46.9285 8.35362C46.8774 8.34462 46.826 8.33558 46.7746 8.33558C43.5646 8.33372 40.3546 8.33372 37.1447 8.33558C37.0749 8.33558 37.0047 8.34905 36.9359 8.36225L36.9358 8.36226C36.9057 8.36804 36.8759 8.37376 36.8465 8.37828V14.3414H37.4235L39.2287 14.3413C41.6382 14.3411 44.0476 14.341 46.4571 14.3432C46.5785 14.3432 46.7003 14.3563 46.8223 14.3693ZM46.8392 22.6455L46.8391 22.6456C46.7258 22.6545 46.6124 22.6635 46.4994 22.6635C44.2202 22.6649 41.941 22.6647 39.6619 22.6645H39.6536L37.3747 22.6644H36.8456V16.6559H37.4244C40.4356 16.6559 43.4468 16.6559 46.458 16.654C46.5804 16.654 46.7029 16.6409 46.8251 16.6278C46.8838 16.6215 46.9424 16.6152 47.001 16.6104V22.6329L47 22.6338L46.9453 22.6374L46.912 22.6399L46.8392 22.6455ZM46.3282 30.9826C46.5521 30.979 46.776 30.9754 47 30.9726V30.9717V24.9492C46.9444 24.9534 46.8888 24.9588 46.8331 24.9641L46.8329 24.9641C46.707 24.9761 46.5808 24.9882 46.4552 24.9882C43.4293 24.99 40.4024 24.99 37.3765 24.99H36.8437V30.9986H37.4189C38.1399 30.9986 38.8608 30.9987 39.5816 30.9989H39.5818H39.5819H39.5821H39.5822H39.5824H39.5826C41.3835 30.9993 43.184 30.9997 44.9846 30.9977C45.4324 30.997 45.8803 30.9898 46.3282 30.9826ZM22.3952 14.3117H12.2766V8.37459H22.3952V14.3117ZM22.4274 22.6245V16.6865H12.2822V22.6245H22.4274ZM34.6939 22.6366H24.5606V16.693H34.6939V22.6366ZM0 30.9763H10.1406V25.0225H0V30.9763ZM12.284 25.0095H22.4081V30.9578H12.284V25.0095ZM34.681 25.0244H24.5551V30.9605H34.681V25.0244Z" fill="white"/>
</svg>
