<svg width="52" height="33" viewBox="0 0 52 33" fill="none" xmlns="http://www.w3.org/2000/svg">
<path d="M18.8158 8.96436e-05C27.4406 -0.00946089 34.8811 0.741848 42 3.34278C44.7423 4.34399 47.3806 5.63491 50.0059 6.91468C51.9018 7.8379 52.5077 9.93424 51.5557 11.6374C50.5729 13.3963 48.4431 14.0457 46.6138 13.0302C42.2583 10.6107 37.6153 8.98874 32.7091 8.06074C27.5917 7.09296 22.4321 6.83191 17.2318 7.11683C12.8585 7.35719 8.54523 7.96683 4.28073 8.94417C2.41247 9.37235 0.539342 8.21196 0.107206 6.44033C-0.350923 4.56525 0.692052 2.67901 2.60905 2.24924C5.31071 1.64278 8.03024 1.0602 10.7741 0.698871C13.7926 0.300932 16.8468 0.16404 18.8174 0.00168053L18.8158 8.96436e-05Z" fill="white"/>
<path d="M3.8182 16.7788C3.83119 15.4927 4.66785 14.3689 6.02599 14.0999C8.60906 13.5873 11.1986 13.0143 13.8158 12.7676C16.8716 12.4795 19.9632 12.3473 23.0304 12.4381C30.5375 12.6593 37.71 14.2574 44.296 17.9567C45.4917 18.6284 46.1383 19.7522 45.9612 20.8776C45.7614 22.1478 44.8646 23.1315 43.5308 23.2923C42.9297 23.3639 42.1987 23.2509 41.6772 22.9612C37.3981 20.5895 32.7973 19.1903 27.9545 18.5186C23.958 17.9646 19.9339 17.8294 15.9229 18.2703C13.1189 18.5791 10.336 19.0868 7.55146 19.5564C5.48826 19.905 3.79708 18.6825 3.81657 16.782L3.8182 16.7788Z" fill="white"/>
<path d="M19.0433 23.1602C26.9338 23.1522 33.5377 24.3763 39.6461 27.6807C40.5055 28.1455 41.2235 28.6979 41.3129 29.7564C41.3925 30.7067 41.0789 31.4755 40.2585 32.0103C39.3829 32.5802 38.4796 32.5531 37.5861 32.0517C35.328 30.7863 32.935 29.8567 30.4218 29.1993C25.6455 27.9513 20.788 27.6839 15.8948 28.128C13.6204 28.335 11.3639 28.7472 9.11063 29.1372C7.56891 29.4046 6.28713 28.7552 5.96059 27.4117C5.63405 26.0667 6.49182 24.8363 8.00267 24.4972C11.9601 23.609 15.9647 23.1124 19.0416 23.1602H19.0433Z" fill="white"/>
</svg>
