<svg width="30" height="30" viewBox="0 0 30 30" fill="none" xmlns="http://www.w3.org/2000/svg">
<path d="M15 18C18.3137 18 21 15.3137 21 12C21 8.68629 18.3137 6 15 6C11.6863 6 9 8.68629 9 12C9 15.3137 11.6863 18 15 18ZM15 9C16.6569 9 18 10.3431 18 12C18 13.6569 16.6569 15 15 15C13.3431 15 12 13.6569 12 12C12 10.3431 13.3431 9 15 9Z" fill="#9F9F9F"/>
<path d="M3 30C1.34315 30 0 28.6569 0 27V3C0 1.34315 1.34315 0 3 0H27C28.6569 0 30 1.34315 30 3V27C30 28.6569 28.6569 30 27 30H3ZM3 3V27H7.5C7.5 22.8579 10.8579 19.5 15 19.5C19.1421 19.5 22.5 22.8579 22.5 27H27V3H3ZM19.5 27C19.5 24.5147 17.4853 22.5 15 22.5C12.5147 22.5 10.5 24.5147 10.5 27H19.5Z" fill="#9F9F9F"/>
</svg>
