<svg width="48" height="28" viewBox="0 0 48 28" fill="none" xmlns="http://www.w3.org/2000/svg">
<path d="M48 26.7322C47.6151 27.4239 46.9897 27.6885 46.2274 27.6904C44.3852 27.6941 42.5431 27.6932 40.701 27.6904C39.8147 27.6885 39.1124 27.2707 38.5209 26.6691C37.4768 25.606 36.4957 24.4789 35.4131 23.4576C34.2752 22.3844 33.0771 21.3677 31.8491 20.3956C31.1336 19.8293 30.314 19.3892 29.3337 19.4059C28.5094 19.4199 28.1723 19.6835 28.1367 20.4922C28.0831 21.7094 28.0784 22.9293 28.0606 24.1475C28.0522 24.7342 28.0841 25.3219 28.0606 25.9068C28.024 26.7916 27.6775 27.2772 26.7987 27.4415C25.9321 27.6031 25.0355 27.695 24.1548 27.6839C20.217 27.6319 16.7919 26.1557 13.6739 23.8764C11.0909 21.9879 9.09015 19.5758 7.29779 16.9688C4.77309 13.2987 2.54039 9.47724 1.01186 5.28906C0.627848 4.23715 0.340545 3.14345 0.087042 2.05161C-0.219039 0.735084 0.279516 0.0647532 1.62402 0.0294726C3.49618 -0.0197345 5.37023 0.015546 7.24333 0.015546C8.18035 0.015546 8.80941 0.482549 9.15681 1.31536C9.50702 2.15373 9.81122 3.01161 10.1558 3.8537C11.4853 7.10787 13.0495 10.2395 15.178 13.0647C15.6606 13.7053 16.2305 14.2828 16.7807 14.8715C16.9572 15.0609 17.1872 15.2094 17.4125 15.345C18.2688 15.8612 18.8566 15.6086 19.0143 14.6412C19.0735 14.2782 19.0584 13.9022 19.0594 13.5326C19.0631 11.1549 19.0594 8.7772 19.0622 6.39947C19.0631 4.9474 18.6697 3.63273 17.7008 2.51304C17.529 2.31435 17.3609 2.10731 17.221 1.88634C16.7159 1.08975 17.1309 0.19102 18.0679 0.0415423C18.2519 0.0118323 18.4406 0.00440481 18.6275 0.00347637C21.1879 -0.00023737 23.7482 -0.00116581 26.3086 0.0016195C27.6221 0.00254794 28.0334 0.358139 28.0456 1.67095C28.0766 4.95947 28.0615 8.24799 28.07 11.5365C28.07 11.8596 28.086 12.1864 28.1329 12.5058C28.255 13.3247 28.884 13.7016 29.575 13.2504C30.3337 12.7555 31.0538 12.1567 31.6575 11.4864C33.5879 9.34169 35.0648 6.88969 36.3877 4.3467C36.8787 3.40155 37.336 2.43876 37.7782 1.47041C38.1904 0.569822 38.8551 0.0313295 39.8663 0.023902C41.8174 0.00904699 43.7693 -0.00395112 45.7194 0.0489697C46.7963 0.0777513 47.2921 0.723014 46.9372 1.72665C46.509 2.94012 46.0208 4.16473 45.3439 5.25378C43.6548 7.97132 41.8643 10.6285 40.0738 13.2838C39.0917 14.7405 39.1152 15.1193 40.3264 16.3932C42.2286 18.3939 44.1177 20.4086 45.9617 22.4623C46.8414 23.4418 47.5634 24.5467 47.9991 25.8066V26.7332L48 26.7322Z" fill="white"/>
</svg>
