<svg width="52" height="52" viewBox="0 0 52 52" fill="none" xmlns="http://www.w3.org/2000/svg">
<path d="M10.7099 5.31516C14.5355 2.48043 19.057 0.766808 23.7694 0.341003V8.13898C20.7232 8.53389 17.814 9.70017 15.3255 11.5442C12.2095 13.8531 9.91799 17.1023 8.78905 20.8126C7.66008 24.5229 7.75343 28.4977 9.05529 32.1508C10.3571 35.804 12.7986 38.9423 16.0196 41.1024C19.2405 43.2624 23.0704 44.3302 26.9444 44.1483C30.8183 43.9662 34.5311 42.5439 37.5354 40.0914C40.5395 37.6385 42.6759 34.2853 43.6295 30.5263C44.2948 27.9041 44.3597 25.1814 43.8388 22.5564L50.387 17.2921L50.3826 17.2496C52.1503 22.112 52.4204 27.402 51.1443 32.4326C49.7819 37.8027 46.73 42.593 42.4383 46.0969C38.1465 49.6004 32.8425 51.6322 27.3082 51.8922C21.774 52.1522 16.3028 50.6269 11.7014 47.5409C7.10006 44.4553 3.61225 39.9722 1.75245 34.7533C-0.107351 29.5345 -0.240691 23.8561 1.3721 18.5558C2.98489 13.2554 6.25841 8.61363 10.7099 5.31516Z" fill="white"/>
</svg>
