<svg width="48" height="33" viewBox="0 0 48 33" fill="none" xmlns="http://www.w3.org/2000/svg">
<path d="M10.2731 32.6402C8.84528 32.5791 7.41743 32.3918 6.00263 32.1789C3.17402 31.754 1.26554 30.0112 0.773872 27.2353C0.412645 25.1929 0.153766 23.1159 0.0755 21.0458C-0.0398918 18.0028 -0.00577597 14.9509 0.0634591 11.9039C0.112626 9.72838 0.319328 7.55677 0.830062 5.42656C1.4582 2.81136 3.54328 1.02912 6.24646 0.696926C10.9243 0.122233 15.6283 0 20.3313 0C25.6192 0 30.9092 0.106461 36.1952 0.251367C38.1056 0.303611 40.0211 0.520477 41.9126 0.802402C44.8566 1.24106 46.6707 3.06766 47.2065 5.9845C47.9772 10.1818 48.0885 14.4215 47.9491 18.6682C47.8778 20.8437 47.7002 23.0183 47.4865 25.185C47.3831 26.2358 47.2086 27.3122 46.8513 28.3019C45.9874 30.6894 44.1512 31.9521 41.6196 32.2745C36.7942 32.8896 31.9377 32.9103 27.0852 32.999C26.0678 33.0177 14.8567 32.8364 10.2731 32.6412V32.6402ZM19.1924 23.5368C23.3636 21.1769 27.4765 18.8486 31.6517 16.4857C27.4595 14.114 23.3505 11.7896 19.1924 9.43758V23.5368Z" fill="white"/>
</svg>
